<?xml version="1.0" encoding="UTF-8"?>
<!DOCTYPE svg PUBLIC "-//W3C//DTD SVG 1.1//EN" "http://www.w3.org/Graphics/SVG/1.1/DTD/svg11.dtd">
<!-- Creator: CorelDRAW Standard 2021 (64-Bit) -->
<svg xmlns="http://www.w3.org/2000/svg" xml:space="preserve" width="100%" height="100%" version="1.1" shape-rendering="geometricPrecision" text-rendering="geometricPrecision" image-rendering="optimizeQuality" fill-rule="evenodd" clip-rule="evenodd"
viewBox="0 0 27093.32 20320"
 xmlns:xlink="http://www.w3.org/1999/xlink"
 xmlns:xodm="http://www.corel.com/coreldraw/odm/2003">
 <g id="Ebene_x0020_1">
  <metadata id="CorelCorpID_0Corel-Layer"/>
  <rect fill="none" stroke="black" stroke-width="26.45" stroke-miterlimit="22.9256" x="8877.93" y="284.05" width="2963.81" height="5745.66"/>
  <rect fill="none" stroke="black" stroke-width="26.45" stroke-miterlimit="22.9256" x="11841.73" y="284.05" width="2833.85" height="5745.66"/>
  <rect fill="none" stroke="black" stroke-width="26.45" stroke-miterlimit="22.9256" x="14675.58" y="284.05" width="2807.84" height="5745.66"/>
  <rect fill="none" stroke="black" stroke-width="26.45" stroke-miterlimit="22.9256" x="17483.41" y="284.05" width="2806.48" height="5730.48"/>
  <rect fill="none" stroke="black" stroke-width="26.45" stroke-miterlimit="22.9256" x="20289.9" y="284.04" width="3010.36" height="5731.39"/>
  <rect fill="none" stroke="black" stroke-width="26.45" stroke-miterlimit="22.9256" x="23300.25" y="284.05" width="2814.9" height="5736.41"/>
  <polygon fill="none" stroke="black" stroke-width="26.45" stroke-miterlimit="22.9256" points="8877.93,6029.71 26102.78,6029.71 26102.78,11609.19 20360.64,11608.64 20305.81,20070.91 605.8,20032.13 597.81,17246.58 19025.36,17216.4 19025.36,14183 14680.85,14183 14651.7,11183.1 8900.07,11144.32 "/>
  <rect fill="none" stroke="black" stroke-width="26.45" stroke-miterlimit="22.9256" x="8900.06" y="11144.32" width="5780.78" height="6077.36"/>
  <rect fill="none" stroke="black" stroke-width="26.45" stroke-miterlimit="22.9256" x="14680.85" y="14182.99" width="2194.18" height="3038.68"/>
  <rect fill="none" stroke="black" stroke-width="26.45" stroke-miterlimit="22.9256" x="16875.02" y="14183" width="2150.34" height="3033.4"/>
  <rect fill="none" stroke="black" stroke-width="26.45" stroke-miterlimit="22.9256" x="20360.63" y="11608.64" width="2762.92" height="5613.61"/>
  <rect fill="none" stroke="black" stroke-width="26.45" stroke-miterlimit="22.9256" x="23123.56" y="11608.64" width="2964.38" height="5613.61"/>
  <text x="15258.09" y="15932.73"  fill="black" font-weight="bold" font-size="642.63px" font-family="Arial">WC</text>
  <text x="17430.35" y="15930.1"  fill="black" font-weight="bold" font-size="642.63px" font-family="Arial">WC</text>
  <g transform="matrix(0.00480253 0.999988 -0.999988 0.00480253 20583.6 -12158.5)">
   <text x="13546.66" y="10160"  fill="black" font-weight="bold" font-size="642.63px" font-family="Arial">215</text>
  </g>
  <g transform="matrix(0.00480253 0.999988 -0.999988 0.00480253 20583.6 -12158.5)">
   <text x="13546.66" y="10877.92"  fill="black" font-weight="bold" font-size="642.63px" font-family="Arial">Nemirovski</text>
  </g>
  <g transform="matrix(0.00480253 0.999988 -0.999988 0.00480253 23481.7 -11453)">
   <text x="13546.66" y="10160"  fill="black" font-weight="bold" font-size="642.63px" font-family="Arial">214</text>
  </g>
  <g transform="matrix(0.00480253 0.999988 -0.999988 0.00480253 23481.7 -11453)">
   <text x="13546.66" y="10877.92"  fill="black" font-weight="bold" font-size="642.63px" font-family="Arial">Röhrle</text>
  </g>
  <g transform="matrix(0.00480253 0.999988 -0.999988 0.00480253 26359.8 -12451.5)">
   <text x="13546.66" y="10160"  fill="black" font-weight="bold" font-size="642.63px" font-family="Arial">213</text>
  </g>
  <g transform="matrix(0.00480253 0.999988 -0.999988 0.00480253 26359.8 -12451.5)">
   <text x="13546.66" y="10877.92"  fill="black" font-weight="bold" font-size="642.63px" font-family="Arial">Lindenmayer</text>
  </g>
  <g transform="matrix(0.00480253 0.999988 -0.999988 0.00480253 29110.7 -11737.5)">
   <text x="13546.66" y="10160"  fill="black" font-weight="bold" font-size="642.63px" font-family="Arial">212</text>
  </g>
  <g transform="matrix(0.00480253 0.999988 -0.999988 0.00480253 29110.7 -11737.5)">
   <text x="13546.66" y="10877.92"  fill="black" font-weight="bold" font-size="642.63px" font-family="Arial">Sütterlin</text>
  </g>
  <g transform="matrix(0.00480253 0.999988 -0.999988 0.00480253 32018 -11440.7)">
   <text x="13546.66" y="10160"  fill="black" font-weight="bold" font-size="642.63px" font-family="Arial">211</text>
  </g>
  <g transform="matrix(0.00480253 0.999988 -0.999988 0.00480253 32018 -11440.7)">
   <text x="13546.66" y="10877.92"  fill="black" font-weight="bold" font-size="642.63px" font-family="Arial">Hower</text>
  </g>
  <g transform="matrix(0.00480253 0.999988 -0.999988 0.00480253 34931.7 -11490.9)">
   <text x="13546.66" y="10160"  fill="black" font-weight="bold" font-size="642.63px" font-family="Arial">210</text>
  </g>
  <g transform="matrix(0.00480253 0.999988 -0.999988 0.00480253 34931.7 -11490.9)">
   <text x="13546.66" y="10877.92"  fill="black" font-weight="bold" font-size="642.63px" font-family="Arial">Stauss</text>
  </g>
  <g transform="matrix(0.00480253 0.999988 -0.999988 0.00480253 34829.8 -227.681)">
   <text x="13546.66" y="10160"  fill="black" font-weight="bold" font-size="642.63px" font-family="Arial">208</text>
  </g>
  <g transform="matrix(0.00480253 0.999988 -0.999988 0.00480253 34829.8 -227.681)">
   <text x="13546.66" y="10877.92"  fill="black" font-weight="bold" font-size="642.63px" font-family="Arial">Herda</text>
  </g>
  <text x="21222.25" y="14645.85"  fill="black" font-weight="bold" font-size="642.63px" font-family="Arial">207</text>
 </g>
</svg>
