<?xml version="1.0" encoding="UTF-8"?>
<!DOCTYPE svg PUBLIC "-//W3C//DTD SVG 1.1//EN" "http://www.w3.org/Graphics/SVG/1.1/DTD/svg11.dtd">
<!-- Creator: CorelDRAW Standard 2021 (64-Bit) -->
<svg xmlns="http://www.w3.org/2000/svg" xml:space="preserve" width="100%" height="100%" version="1.1" shape-rendering="geometricPrecision" text-rendering="geometricPrecision" image-rendering="optimizeQuality" fill-rule="evenodd" clip-rule="evenodd"
viewBox="0 0 27093.32 20320"
 xmlns:xlink="http://www.w3.org/1999/xlink"
 xmlns:xodm="http://www.corel.com/coreldraw/odm/2003">
 <g id="Ebene_x0020_1">
  <metadata id="CorelCorpID_0Corel-Layer"/>
  <rect fill="none" stroke="black" stroke-width="26.45" stroke-miterlimit="22.9256" x="11597.32" y="555.24" width="1871.94" height="3996.16"/>
  <rect fill="none" stroke="black" stroke-width="26.45" stroke-miterlimit="22.9256" x="13469.26" y="555.24" width="2079.92" height="3996.16"/>
  <rect id="201_116" class="roomSVG" fill="#00336A" stroke="black" stroke-width="26.45" stroke-miterlimit="22.9256" x="15549.19" y="555.24" width="7570.93" height="3996.16"/>
  <rect fill="none" stroke="black" stroke-width="26.45" stroke-miterlimit="22.9256" x="6231.12" y="4551.39" width="4534.22" height="1828.03"/>
  <polygon fill="none" stroke="black" stroke-width="26.45" stroke-miterlimit="22.9256" points="10765.36,4551.4 19242.7,4551.4 19242.7,8231.04 17394.31,8238.91 17421.13,12161.11 19242.7,12146.84 19242.7,15264.51 11705.91,15264.51 11722.13,14201.7 15424.4,14201.7 15424.4,7952.39 11597.33,7941.58 11597.33,6379.43 10765.36,6379.43 "/>
  <rect fill="none" stroke="black" stroke-width="26.45" stroke-miterlimit="22.9256" x="11597.32" y="7941.58" width="3827.07" height="4206.77"/>
  <rect fill="none" stroke="black" stroke-width="26.45" stroke-miterlimit="22.9256" x="12845.29" y="12148.35" width="2579.11" height="2053.35"/>
  <rect id="201_112" class="roomSVG" fill="#00336A" stroke="black" stroke-width="26.45" stroke-miterlimit="22.9256" x="9725.41" y="12148.35" width="3119.88" height="2053.35"/>
  <rect id="201_113" class="roomSVG" fill="#00336A" stroke="black" stroke-width="26.45" stroke-miterlimit="22.9256" x="7853.47" y="12148.35" width="1871.94" height="2053.35"/>
  <polygon fill="none" stroke="black" stroke-width="26.45" stroke-miterlimit="22.9256" points="11705.91,15254.45 5856.74,15254.45 5856.74,12148.35 7850.75,12148.35 7853.47,14201.7 11722.14,14201.7 "/>
  <rect id="201_102" class="roomSVG" fill="#00336A" stroke="black" stroke-width="26.45" stroke-miterlimit="22.9256" x="53.74" y="12148.34" width="5803" height="7922.56"/>
  <rect id="201_103" class="roomSVG" fill="#00336A" stroke="black" stroke-width="26.45" stroke-miterlimit="22.9256" x="5856.73" y="15264.5" width="5865.4" height="4803.89"/>
  <rect fill="none" stroke="black" stroke-width="26.45" stroke-miterlimit="22.9256" x="11722.13" y="15264.51" width="1830.32" height="4803.89"/>
  <rect fill="none" stroke="black" stroke-width="26.45" stroke-miterlimit="22.9256" x="13552.45" y="15264.51" width="5698.99" height="4803.89"/>
  <rect fill="none" stroke="black" stroke-width="26.45" stroke-miterlimit="22.9256" x="19251.45" y="16072.25" width="2579.11" height="3996.16"/>
  <rect fill="none" stroke="black" stroke-width="26.45" stroke-miterlimit="22.9256" x="21830.56" y="16072.25" width="1289.56" height="3996.16"/>
  <rect id="201_109" class="roomSVG" fill="#00336A" stroke="black" stroke-width="26.45" stroke-miterlimit="22.9256" x="19242.7" y="12146.83" width="7704.48" height="3925.41"/>
  <polygon fill="none" stroke="black" stroke-width="26.45" stroke-miterlimit="22.9256" points="23120.12,4551.4 19256.39,4551.4 19242.7,8231.04 17394.31,8238.91 17421.13,12161.11 23120.12,12161.11 "/>
  <g transform="matrix(0.978504 0 0 1 5537.42 -7711.31)">
   <text x="13546.66" y="10160"  fill="black" font-weight="bold" font-size="510.12px" font-family="Arial">116</text>
  </g>
  <g transform="matrix(0.978504 0 0 1 5537.42 -7711.31)">
   <text x="13546.66" y="10729.89"  fill="black" font-weight="bold" font-size="510.12px" font-family="Arial">Pool</text>
  </g>
  <g transform="matrix(0.978504 0 0 1 7430.34 -2219.59)">
   <text x="13546.66" y="10160"  fill="black" font-weight="bold" font-size="510.12px" font-family="Arial">114</text>
  </g>
  <g transform="matrix(0.978504 0 0 1 7430.34 -2219.59)">
   <text x="13546.66" y="10729.89"  fill="black" font-weight="bold" font-size="510.12px" font-family="Arial">Pool</text>
  </g>
  <g transform="matrix(0.978504 0 0 1 9034.13 3949.54)">
   <text x="13546.66" y="10160"  fill="black" font-weight="bold" font-size="510.12px" font-family="Arial">109</text>
  </g>
  <g transform="matrix(0.978504 0 0 1 9034.13 3949.54)">
   <text x="13546.66" y="10729.89"  fill="black" font-weight="bold" font-size="510.12px" font-family="Arial">BA Pool</text>
  </g>
  <g transform="matrix(0.978504 0 0 1 8605.28 7630.99)">
   <text x="13546.66" y="10160"  fill="black" font-weight="bold" font-size="485.01px" font-family="Arial">107</text>
  </g>
  <g transform="matrix(0.978504 0 0 1 8605.28 7630.99)">
   <text x="13546.66" y="10555.47"  fill="black" font-weight="bold" font-size="323.34px" font-family="Arial">BA Pool</text>
  </g>
  <g transform="matrix(0.978504 0 0 1 6496.43 7805.71)">
   <text x="13546.66" y="10160"  fill="black" font-weight="bold" font-size="510.12px" font-family="Arial">106</text>
  </g>
  <g transform="matrix(0.978504 0 0 1 6496.43 7805.71)">
   <text x="13546.66" y="10729.89"  fill="black" font-weight="bold" font-size="510.12px" font-family="Arial">Server</text>
  </g>
  <g transform="matrix(0.978504 0 0 1 1214.91 6546.96)">
   <text x="13546.66" y="10160"  fill="black" font-weight="bold" font-size="510.12px" font-family="Arial">105</text>
  </g>
  <g transform="matrix(0.978504 0 0 1 1214.91 6546.96)">
   <text x="13546.66" y="10729.89"  fill="black" font-weight="bold" font-size="510.12px" font-family="Arial">Büro Mitarbeiter</text>
  </g>
  <g transform="matrix(0.978504 0 0 1 1214.91 6546.96)">
   <text x="13546.66" y="11299.78"  fill="black" font-weight="bold" font-size="510.12px" font-family="Arial">Kuti</text>
  </g>
  <g transform="matrix(0.978504 0 0 1 1214.91 6546.96)">
   <text x="13546.66" y="11869.67"  fill="black" font-weight="bold" font-size="510.12px" font-family="Arial">Sturmfol</text>
  </g>
  <g transform="matrix(0.978504 0 0 1 1214.91 6546.96)">
   <text x="13546.66" y="12439.56"  fill="black" font-weight="bold" font-size="510.12px" font-family="Arial">Wolters</text>
  </g>
  <g transform="matrix(0.00204223 0.999998 -0.978502 0.0020871 22649.5 2106.53)">
   <text x="13546.66" y="10160"  fill="black" font-weight="bold" font-size="510.12px" font-family="Arial">105</text>
  </g>
  <g transform="matrix(0.00204223 0.999998 -0.978502 0.0020871 22649.5 2106.53)">
   <text x="13546.66" y="10729.89"  fill="black" font-weight="bold" font-size="510.12px" font-family="Arial">Büro Mitarbeiter</text>
  </g>
  <g transform="matrix(0.978504 0 0 1 -5778.75 7401.84)">
   <text x="13546.66" y="10160"  fill="black" font-weight="bold" font-size="510.12px" font-family="Arial">103</text>
  </g>
  <g transform="matrix(0.978504 0 0 1 -5778.75 7401.84)">
   <text x="13546.66" y="10729.89"  fill="black" font-weight="bold" font-size="510.12px" font-family="Arial">Multimedia</text>
  </g>
  <g transform="matrix(0.978504 0 0 1 -3136.9 2863.48)">
   <text x="13546.66" y="10160"  fill="black" font-weight="bold" font-size="510.12px" font-family="Arial">112</text>
  </g>
  <g transform="matrix(0.978504 0 0 1 -3136.9 2863.48)">
   <text x="13546.66" y="10729.89"  fill="black" font-weight="bold" font-size="510.12px" font-family="Arial">Bquarium</text>
  </g>
  <g transform="matrix(0.978504 0 0 1 469.503 3198.68)">
   <text x="13546.66" y="10160"  fill="black" font-weight="bold" font-size="510.12px" font-family="Arial">111</text>
  </g>
  <g transform="matrix(0.978504 0 0 1 469.503 3198.68)">
  </g>
  <g transform="matrix(0.978504 0 0 1 -5231.76 2957.2)">
   <text x="13546.66" y="10160"  fill="black" font-weight="bold" font-size="510.12px" font-family="Arial">113</text>
  </g>
  <g transform="matrix(0.978504 0 0 1 -5231.76 2957.2)">
   <text x="13546.66" y="10575.95"  fill="black" font-weight="bold" font-size="340.08px" font-family="Arial">Aquarium</text>
  </g>
  <g transform="matrix(0.978504 0 0 1 -10842 5845.01)">
   <text x="13546.66" y="10160"  fill="black" font-weight="bold" font-size="510.12px" font-family="Arial">102</text>
  </g>
  <g transform="matrix(0.978504 0 0 1 -10842 5845.01)">
   <text x="13546.66" y="10729.89"  fill="black" font-weight="bold" font-size="510.12px" font-family="Arial">Pool</text>
  </g>
  <g transform="matrix(0.978504 0 0 1 -10842 5845.01)">
  </g>
  <g transform="matrix(0.978504 0 0 1 481.782 -7711.31)">
   <text x="13546.66" y="10160"  fill="black" font-weight="bold" font-size="510.12px" font-family="Arial">117</text>
  </g>
  <g transform="matrix(0.978504 0 0 1 481.782 -7711.31)">
   <text x="13546.66" y="10729.89"  fill="black" font-weight="bold" font-size="510.12px" font-family="Arial">Küche</text>
  </g>
  <g transform="matrix(0.978504 0 0 1 -1323.75 -7423.03)">
   <text x="13546.66" y="10160"  fill="black" font-weight="bold" font-size="510.12px" font-family="Arial">117A</text>
  </g>
 </g>
</svg>
