<?xml version="1.0" encoding="UTF-8"?>
<!DOCTYPE svg PUBLIC "-//W3C//DTD SVG 1.1//EN" "http://www.w3.org/Graphics/SVG/1.1/DTD/svg11.dtd">
<!-- Creator: CorelDRAW Standard 2021 (64-Bit) -->
<svg xmlns="http://www.w3.org/2000/svg" xml:space="preserve" class="206" width="100%" height="100%" version="1.1" shape-rendering="geometricPrecision" text-rendering="geometricPrecision" image-rendering="optimizeQuality" fill-rule="evenodd" clip-rule="evenodd"
viewBox="0 0 9260.4 20320"
 xmlns:xlink="http://www.w3.org/1999/xlink"
 xmlns:xodm="http://www.corel.com/coreldraw/odm/2003">
 <g id="Ebene_x0020_1">
  <metadata id="CorelCorpID_0Corel-Layer"/>
  <rect id="206_029" class="roomSVG" fill="#00336A" stroke="black" stroke-width="26.45" stroke-miterlimit="22.9256" x="1054.22" y="388.93" width="855.1" height="1447.1"/>
  <polygon fill="none" stroke="black" stroke-width="26.45" stroke-miterlimit="22.9256" points="2303.99,388.93 6612.42,388.93 6612.42,1661.02 3323.55,1649.66 3319.02,1901.81 2303.99,1901.81 "/>
  <rect fill="none" stroke="black" stroke-width="26.45" stroke-miterlimit="22.9256" x="4767.54" y="1643.9" width="1844.87" height="1705"/>
  <rect fill="none" stroke="black" stroke-width="26.45" stroke-miterlimit="22.9256" x="3323.54" y="1638.7" width="1444" height="1055.49"/>
  <rect fill="none" stroke="black" stroke-width="26.45" stroke-miterlimit="22.9256" x="3323.54" y="2694.18" width="1444" height="654.72"/>
  <rect fill="none" stroke="black" stroke-width="26.45" stroke-miterlimit="22.9256" x="2304" y="2694.18" width="1019.55" height="654.72"/>
  <rect fill="none" stroke="black" stroke-width="26.45" stroke-miterlimit="22.9256" x="2303.99" y="1901.8" width="1000.82" height="792.38"/>
  <rect id="206_025" class="roomSVG" fill="#00336A" stroke="black" stroke-width="26.45" stroke-miterlimit="22.9256" x="1021.33" y="4138.24" width="855.1" height="394.67"/>
  <rect id="206_024" class="roomSVG" fill="#00336A" stroke="black" stroke-width="26.45" stroke-miterlimit="22.9256" x="1021.33" y="4532.91" width="855.1" height="2927.11"/>
  <rect id="206_050" class="roomSVG" fill="#00336A" stroke="black" stroke-width="26.45" stroke-miterlimit="22.9256" x="2238.22" y="4138.21" width="2532.43" height="4538.66"/>
  <rect id="206_049" class="roomSVG" fill="#00336A" stroke="black" stroke-width="26.45" stroke-miterlimit="22.9256" x="2238.23" y="8676.89" width="2532.43" height="1249.78"/>
  <rect id="206_023" class="roomSVG" fill="#00336A" stroke="black" stroke-width="26.45" stroke-miterlimit="22.9256" x="1021.33" y="7460.01" width="855.1" height="1216.87"/>
  <rect id="206_022" class="roomSVG" fill="#00336A" stroke="black" stroke-width="26.45" stroke-miterlimit="22.9256" x="1021.33" y="8676.89" width="855.1" height="624.89"/>
  <rect id="206_021" class="roomSVG" fill="#00336A" stroke="black" stroke-width="26.45" stroke-miterlimit="22.9256" x="1021.33" y="9301.78" width="855.1" height="559.11"/>
  <rect id="206_044" class="roomSVG" fill="#00336A" stroke="black" stroke-width="26.45" stroke-miterlimit="22.9256" x="5198.21" y="4138.23" width="1414.21" height="1052.45"/>
  <rect id="206_045" class="roomSVG" fill="#00336A" stroke="black" stroke-width="26.45" stroke-miterlimit="22.9256" x="5198.21" y="5190.68" width="1414.21" height="1447.11"/>
  <rect id="206_046" class="roomSVG" fill="#00336A" stroke="black" stroke-width="26.45" stroke-miterlimit="22.9256" x="5198.21" y="6637.8" width="1414.21" height="1216.89"/>
  <rect id="206_047" class="roomSVG" fill="#00336A" stroke="black" stroke-width="26.45" stroke-miterlimit="22.9256" x="5198.21" y="7854.68" width="1414.21" height="855.1"/>
  <rect id="206_048" class="roomSVG" fill="#00336A" stroke="black" stroke-width="26.45" stroke-miterlimit="22.9256" x="5198.21" y="8709.78" width="1414.21" height="1710.23"/>
  <polygon fill="none" stroke="black" stroke-width="26.45" stroke-miterlimit="22.9256" points="659.56,10354.23 3685.32,10387.12 4902.21,12360.45 659.56,12360.45 "/>
  <polygon fill="none" stroke="black" stroke-width="26.45" stroke-miterlimit="22.9256" points="2823.27,12360.45 4902.21,12360.45 7631.98,16668.88 5954.65,17721.32 5691.54,17260.87 5428.42,16964.87 5000.88,16701.77 4507.54,16570.2 3915.54,16603.09 "/>
  <polygon fill="none" stroke="black" stroke-width="26.45" stroke-miterlimit="22.9256" points="1909.33,388.93 2303.99,388.93 2303.99,3348.91 2320.24,4138.24 2238.22,4138.24 2238.22,9926.67 2595.93,9926.67 2607.94,10375.4 659.56,10354.23 659.56,9860.89 1876.43,9860.89 1876.43,4138.24 1021.33,4138.24 1019.83,3348.91 725.33,3348.91 725.33,2888.47 1087.1,2888.47 1054.22,1836.03 1909.33,1828.27 "/>
  <polygon fill="none" stroke="black" stroke-width="26.45" stroke-miterlimit="22.9256" points="2303.99,3348.91 6612.42,3348.91 6612.42,4138.24 5198.21,4138.24 5198.21,10420.01 2607.94,10375.4 2595.93,9926.67 4770.66,9926.67 4770.66,4138.24 2303.99,4138.24 "/>
  <ellipse id="206_017" class="roomSVG" fill="#00336A" stroke="black" stroke-width="26.45" stroke-miterlimit="22.9256" cx="4343.1" cy="18202.29" rx="1611.55" ry="1623.91"/>
  <text x="1109.16" y="825.67"  fill="white" font-weight="bold" font-size="317.5px" font-family="Arial">029</text>
  <text x="1109.14" y="4424.18"  fill="white" font-weight="bold" font-size="317.5px" font-family="Arial">025</text>
  <text x="1108.97" y="6075.01"  fill="white" font-weight="bold" font-size="317.5px" font-family="Arial">024</text>
  <text x="1100.34" y="8141.68"  fill="white" font-weight="bold" font-size="317.5px" font-family="Arial">023</text>
  <text x="1102.72" y="9043.59"  fill="white" font-weight="bold" font-size="317.5px" font-family="Arial">022</text>
  <text x="1064.48" y="9659.32"  fill="white" font-weight="bold" font-size="317.5px" font-family="Arial">021</text>
  <text x="3211.4" y="6583.16"  fill="white" font-weight="bold" font-size="317.5px" font-family="Arial">050</text>
  <text x="3217.87" y="9407.61"  fill="white" font-weight="bold" font-size="317.5px" font-family="Arial">049</text>
  <text x="5558.88" y="4738.43"  fill="white" font-weight="bold" font-size="317.5px" font-family="Arial">044</text>
  <text x="5580.72" y="6021.67"  fill="white" font-weight="bold" font-size="317.5px" font-family="Arial">045</text>
  <text x="5586.2" y="7362.45"  fill="white" font-weight="bold" font-size="317.5px" font-family="Arial">046</text>
  <text x="5542.67" y="8334.07"  fill="white" font-weight="bold" font-size="317.5px" font-family="Arial">047</text>
  <text x="5531.82" y="9706.03"  fill="white" font-weight="bold" font-size="317.5px" font-family="Arial">048</text>
  <text x="3973.79" y="18293.26"  fill="white" font-weight="bold" font-size="317.5px" font-family="Arial">017</text>
 </g>
</svg>
