<?xml version="1.0" encoding="UTF-8"?>
<!DOCTYPE svg PUBLIC "-//W3C//DTD SVG 1.1//EN" "http://www.w3.org/Graphics/SVG/1.1/DTD/svg11.dtd">
<!-- Creator: CorelDRAW Standard 2021 (64-Bit) -->
<svg xmlns="http://www.w3.org/2000/svg" xml:space="preserve" width="100%" class="206" height="100%" version="1.1" shape-rendering="geometricPrecision" text-rendering="geometricPrecision" image-rendering="optimizeQuality" fill-rule="evenodd" clip-rule="evenodd"
viewBox="0 0 9260.4 20320"
 xmlns:xlink="http://www.w3.org/1999/xlink"
 xmlns:xodm="http://www.corel.com/coreldraw/odm/2003">
 <g id="Ebene_x0020_1">
  <metadata id="CorelCorpID_0Corel-Layer"/>
  <rect id="206_116" class="roomSVG" fill="#00336A" stroke="black" stroke-width="26.45" stroke-miterlimit="22.9256" x="965.72" y="1521.35" width="740.83" height="1322.91"/>
  <rect fill="none" stroke="black" stroke-width="26.45" stroke-miterlimit="22.9256" x="2050.51" y="1521.36" width="3704.17" height="2566.45"/>
  <rect id="206_112" class="roomSVG" fill="#00336A" stroke="black" stroke-width="26.45" stroke-miterlimit="22.9256" x="965.72" y="4140.73" width="740.83" height="529.17"/>
  <rect id="206_111" class="roomSVG" fill="#00336A" stroke="black" stroke-width="26.45" stroke-miterlimit="22.9256" x="965.72" y="4669.9" width="740.83" height="740.83"/>
  <rect fill="none" stroke="black" stroke-width="26.45" stroke-miterlimit="22.9256" x="4590.51" y="4087.81" width="1164.17" height="793.75"/>
  <rect fill="none" stroke="black" stroke-width="26.45" stroke-miterlimit="22.9256" x="4590.51" y="4881.56" width="1164.17" height="767.29"/>
  <rect id="206_110" class="roomSVG" fill="#00336A" stroke="black" stroke-width="26.45" stroke-miterlimit="22.9256" x="965.72" y="5410.73" width="740.83" height="687.92"/>
  <rect id="206_109" class="roomSVG" fill="#00336A" stroke="black" stroke-width="26.45" stroke-miterlimit="22.9256" x="965.72" y="6098.65" width="740.83" height="740.83"/>
  <rect id="206_108" class="roomSVG" fill="#00336A" stroke="black" stroke-width="26.45" stroke-miterlimit="22.9256" x="965.72" y="6839.48" width="740.83" height="740.83"/>
  <rect id="206_107" class="roomSVG" fill="#00336A" stroke="black" stroke-width="26.45" stroke-miterlimit="22.9256" x="965.72" y="7580.31" width="740.83" height="714.38"/>
  <rect id="206_106" class="roomSVG" fill="#00336A" stroke="black" stroke-width="26.45" stroke-miterlimit="22.9256" x="965.72" y="8294.69" width="740.83" height="529.16"/>
  <rect id="206_105" class="roomSVG" fill="#00336A" stroke="black" stroke-width="26.45" stroke-miterlimit="22.9256" x="965.72" y="8823.85" width="740.83" height="1031.88"/>
  <rect id="206_103" class="roomSVG" fill="#00336A" stroke="black" stroke-width="26.45" stroke-miterlimit="22.9256" x="727.6" y="10279.06" width="978.95" height="1799.17"/>
  <rect fill="none" stroke="black" stroke-width="26.45" stroke-miterlimit="22.9256" x="2050.51" y="4802.19" width="2196.04" height="4021.66"/>
  <rect fill="none" stroke="black" stroke-width="26.45" stroke-miterlimit="22.9256" x="2050.51" y="8823.85" width="2196.04" height="1058.34"/>
  <rect fill="none" stroke="black" stroke-width="26.45" stroke-miterlimit="22.9256" x="4590.5" y="8823.85" width="1164.17" height="1453.93"/>
  <rect fill="none" stroke="black" stroke-width="26.45" stroke-miterlimit="22.9256" x="4590.5" y="8083.03" width="1164.17" height="740.83"/>
  <rect fill="none" stroke="black" stroke-width="26.45" stroke-miterlimit="22.9256" x="4590.52" y="7024.7" width="1164.17" height="1058.33"/>
  <rect fill="none" stroke="black" stroke-width="26.45" stroke-miterlimit="22.9256" x="4590.52" y="5648.85" width="1164.17" height="1375.84"/>
  <polygon fill="none" stroke="black" stroke-width="26.45" stroke-miterlimit="22.9256" points="1706.55,1521.36 2050.51,1521.36 2050.51,4085.14 2050.51,4798.78 2050.51,9873.51 2321.32,9873.51 2316.86,10274.51 1706.55,10269.96 726.32,10269.96 727.6,9847.07 1706.55,9847.07 1706.55,4111.58 754.05,4111.58 754.05,3741.54 992.18,3741.54 965.72,2842.9 1706.55,2842.9 "/>
  <polygon fill="none" stroke="black" stroke-width="26.45" stroke-miterlimit="22.9256" points="2586.02,12069.52 4378.85,12051.77 6707.18,15755.94 3539.55,15755.94 "/>
  <ellipse fill="none" stroke="black" stroke-width="26.45" stroke-miterlimit="22.9256" cx="3862.91" cy="17118.54" rx="1415.52" ry="1389.06"/>
  <polygon fill="none" stroke="black" stroke-width="26.45" stroke-miterlimit="22.9256" points="1706.55,10279.06 3142.17,10279.06 4378.85,12051.77 1706.55,12063.11 "/>
  <polygon fill="none" stroke="black" stroke-width="26.45" stroke-miterlimit="22.9256" points="2321.32,9883.27 4246.12,9883.27 4246.55,4802.32 2050.51,4802.32 2050.51,4087.81 4590.51,4087.81 4590.51,9883.27 4590.51,10277.18 2321.32,10277.18 "/>
  <text x="1062.28" y="2285.17"  fill="white" font-weight="bold" font-size="317.5px" font-family="Arial">116</text>
  <text x="1056.54" y="4527.93"  fill="white" font-weight="bold" font-size="317.5px" font-family="Arial">112</text>
  <text x="1046.04" y="5162.93"  fill="white" font-weight="bold" font-size="317.5px" font-family="Arial">111</text>
  <text x="1043.5" y="5872.89"  fill="white" font-weight="bold" font-size="317.5px" font-family="Arial">110</text>
  <text x="1077.96" y="6584.72"  fill="white" font-weight="bold" font-size="317.5px" font-family="Arial">109</text>
  <text x="1067.4" y="7351.95"  fill="white" font-weight="bold" font-size="317.5px" font-family="Arial">108</text>
  <text x="1056.84" y="8060.72"  fill="white" font-weight="bold" font-size="317.5px" font-family="Arial">107</text>
  <text x="1070.1" y="8652.84"  fill="white" font-weight="bold" font-size="317.5px" font-family="Arial">106</text>
  <text x="1051.6" y="9453.8"  fill="white" font-weight="bold" font-size="317.5px" font-family="Arial">105</text>
  <text x="934.04" y="11313.59"  fill="white" font-weight="bold" font-size="317.5px" font-family="Arial">103</text>
 </g>
</svg>
