<?xml version="1.0" encoding="UTF-8"?>
<!DOCTYPE svg PUBLIC "-//W3C//DTD SVG 1.1//EN" "http://www.w3.org/Graphics/SVG/1.1/DTD/svg11.dtd">
<!-- Creator: CorelDRAW Standard 2021 (64-Bit) -->
<svg xmlns="http://www.w3.org/2000/svg" xml:space="preserve" width="100%" height="100%" version="1.1" shape-rendering="geometricPrecision" text-rendering="geometricPrecision" image-rendering="optimizeQuality" fill-rule="evenodd" clip-rule="evenodd"
viewBox="0 0 9260.4 20320"
 xmlns:xlink="http://www.w3.org/1999/xlink"
 xmlns:xodm="http://www.corel.com/coreldraw/odm/2003">
 <g id="Ebene_x0020_1">
  <metadata id="CorelCorpID_0Corel-Layer"/>
  <rect id="206_211" class="roomSVG" fill="#00336A" stroke="black" stroke-width="26.45" stroke-miterlimit="22.9256" x="607.1" y="478.56" width="1416.8" height="1446.95"/>
  <rect id="206_206" class="roomSVG" fill="#00336A" stroke="black" stroke-width="26.45" stroke-miterlimit="22.9256" x="607.1" y="3312.16" width="1416.8" height="1416.8"/>
  <rect id="206_205" class="roomSVG" fill="#00336A" stroke="black" stroke-width="26.45" stroke-miterlimit="22.9256" x="607.1" y="4728.96" width="1416.8" height="1808.68"/>
  <rect id="206_204" class="roomSVG" fill="#00336A" stroke="black" stroke-width="26.45" stroke-miterlimit="22.9256" x="607.1" y="6537.65" width="1416.8" height="1748.39"/>
  <rect id="206_203" class="roomSVG" fill="#00336A" stroke="black" stroke-width="26.45" stroke-miterlimit="22.9256" x="607.1" y="8286.03" width="1416.8" height="1416.81"/>
  <rect id="206_201" class="roomSVG" fill="#00336A" stroke="black" stroke-width="26.45" stroke-miterlimit="22.9256" x="607.1" y="10094.72" width="1205.79" height="2471.88"/>
  <polygon fill="none" stroke="black" stroke-width="26.45" stroke-miterlimit="22.9256" points="2445.93,478.56 6214.02,478.56 6214.02,6236.2 2445.93,6147.15 "/>
  <polygon fill="none" stroke="black" stroke-width="26.45" stroke-miterlimit="22.9256" points="2445.93,6507.5 6244.17,6616.76 6244.17,10396.18 2445.93,10275.59 "/>
  <polygon fill="none" stroke="black" stroke-width="26.45" stroke-miterlimit="22.9256" points="2445.93,10294.96 3614.36,10294.13 3621.57,10456.46 7419.81,16726.57 5682.58,17716.49 5377.21,17084.7 4917.8,16636.13 4280.96,16489.95 3805.25,16528.07 2717.23,12174.71 2445.93,12166.89 "/>
  <ellipse fill="none" stroke="black" stroke-width="26.45" stroke-miterlimit="22.9256" cx="4146.11" cy="18073.82" rx="1566.39" ry="1627.82"/>
  <rect id="206_232" class="roomSVG" fill="#00336A" stroke="black" stroke-width="26.45" stroke-miterlimit="22.9256" x="6515.46" y="478.55" width="1718.26" height="1627.82"/>
  <rect id="206_231" class="roomSVG" fill="#00336A" stroke="black" stroke-width="26.45" stroke-miterlimit="22.9256" x="6515.46" y="2106.38" width="1718.26" height="1688.1"/>
  <rect id="206_230" class="roomSVG" fill="#00336A" stroke="black" stroke-width="26.45" stroke-miterlimit="22.9256" x="6515.46" y="3794.47" width="1718.26" height="1657.96"/>
  <rect id="206_229" class="roomSVG" fill="#00336A" stroke="black" stroke-width="26.45" stroke-miterlimit="22.9256" x="7374.6" y="5452.44" width="859.12" height="813.91"/>
  <polygon id="206_226" class="roomSVG" fill="#00336A" stroke="black" stroke-width="26.45" stroke-miterlimit="22.9256" points="6545.61,6628.09 7389.66,6628.09 7389.66,7472.13 6668.58,7472.13 "/>
  <polyline id="206_225" class="roomSVG" fill="#00336A" stroke="black" stroke-width="26.45" stroke-miterlimit="22.9256" points="8233.72,7472.13 7389.66,7472.13 7389.66,6628.09 8233.72,6628.09 "/>
  <polyline id="206_224" class="roomSVG" fill="#00336A" stroke="black" stroke-width="26.45" stroke-miterlimit="22.9256" points="8233.72,8738.21 6877.2,8738.21 6668.58,7472.13 8233.72,7472.13 "/>
  <polyline id="206_223" class="roomSVG" fill="#00336A" stroke="black" stroke-width="26.45" stroke-miterlimit="22.9256" points="8233.72,9341.11 6977.18,9341.11 6864.69,8738.21 8233.72,8738.21 "/>
  <polyline id="206_222" class="roomSVG" fill="#00336A" stroke="black" stroke-width="26.45" stroke-miterlimit="22.9256" points="8233.72,9944 7058.67,9944 6962.75,9341.11 8233.72,9341.11 "/>
  <polyline id="206_221" class="roomSVG" fill="#00336A" stroke="black" stroke-width="26.45" stroke-miterlimit="22.9256" points="8638.66,10396.18 8624.64,11168.01 7318.34,11342.88 7060.89,9944 8260.24,9944 "/>
  <polyline fill="none" stroke="black" stroke-width="26.45" stroke-miterlimit="22.9256" points="7374.6,6253.53 8233.72,6266.35 8233.72,478.56 8655.74,478.56 8655.74,6266.35 8646.64,10396.18 8263.86,10396.18 8233.72,6628.09 6244.17,6616.76 6244.17,6507.5 6247.4,6236.7 6515.47,6240.7 "/>
  <polygon fill="none" stroke="black" stroke-width="26.45" stroke-miterlimit="22.9256" points="2023.9,478.56 2445.93,478.56 2445.93,1927.46 2415.79,12566.6 1812.89,12566.6 1812.89,10094.72 607.1,10094.72 607.1,9702.85 2023.9,9702.85 2023.9,3312.16 607.1,3312.16 607.1,1925.51 2023.9,1927.46 "/>
  <polyline fill="none" stroke="black" stroke-width="26.45" stroke-miterlimit="22.9256" points="6515.47,6240.7 6515.47,5452.44 7374.6,5452.44 7374.6,6253.53 "/>
  <text x="992.64" y="1282.72"  fill="black" font-weight="bold" font-size="317.5px" font-family="Arial">211</text>
  <text x="1015.46" y="4109.09"  fill="black" font-weight="bold" font-size="317.5px" font-family="Arial">206</text>
  <text x="999.22" y="5720.07"  fill="black" font-weight="bold" font-size="317.5px" font-family="Arial">205</text>
  <text x="1001.72" y="7508.32"  fill="black" font-weight="bold" font-size="317.5px" font-family="Arial">204</text>
  <text x="978.65" y="9105.73"  fill="black" font-weight="bold" font-size="317.5px" font-family="Arial">203</text>
  <text x="910.9" y="11398.12"  fill="black" font-weight="bold" font-size="317.5px" font-family="Arial">201</text>
  <text x="7066.02" y="4712.65"  fill="black" font-weight="bold" font-size="317.5px" font-family="Arial">230</text>
  <text x="7039.55" y="1405.68"  fill="black" font-weight="bold" font-size="317.5px" font-family="Arial">232		</text>
  <text x="7051.81" y="3081.42"  fill="black" font-weight="bold" font-size="317.5px" font-family="Arial">231</text>
  <text x="7471.62" y="5947.19"  fill="black" font-weight="bold" font-size="317.5px" font-family="Arial">229</text>
  <text x="7449.2" y="7152.99"  fill="black" font-weight="bold" font-size="317.5px" font-family="Arial">225</text>
  <text x="6649.34" y="7177.63"  fill="black" font-weight="bold" font-size="317.5px" font-family="Arial">226</text>
  <text x="7135.61" y="8226.52"  fill="black" font-weight="bold" font-size="317.5px" font-family="Arial">224</text>
  <text x="7224.28" y="9136.86"  fill="black" font-weight="bold" font-size="317.5px" font-family="Arial">223</text>
  <text x="7305.59" y="9737.52"  fill="black" font-weight="bold" font-size="317.5px" font-family="Arial">222</text>
  <text x="7514.47" y="10700.68"  fill="black" font-weight="bold" font-size="317.5px" font-family="Arial">221</text>
 </g>
</svg>
