<?xml version="1.0" encoding="UTF-8"?>
<!DOCTYPE svg PUBLIC "-//W3C//DTD SVG 1.1//EN" "http://www.w3.org/Graphics/SVG/1.1/DTD/svg11.dtd">
<!-- Creator: CorelDRAW Standard 2021 (64-Bit) -->
<svg xmlns="http://www.w3.org/2000/svg" xml:space="preserve" width="100%" class="206" height="100%" version="1.1" shape-rendering="geometricPrecision" text-rendering="geometricPrecision" image-rendering="optimizeQuality" fill-rule="evenodd" clip-rule="evenodd"
viewBox="0 0 9260.4 20320"
 xmlns:xlink="http://www.w3.org/1999/xlink"
 xmlns:xodm="http://www.corel.com/coreldraw/odm/2003">
 <g id="Ebene_x0020_1">
  <metadata id="CorelCorpID_0Corel-Layer"/>
  <g id="_2767247760992">
   <rect id="206_311" class="roomSVG" fill="#00336A" stroke="black" stroke-width="26.45" stroke-miterlimit="22.9256" x="275.93" y="245.42" width="1609.8" height="1489.29"/>
   <rect fill="none" stroke="black" stroke-width="26.45" stroke-miterlimit="22.9256" x="2361.36" y="213.72" width="4426.93" height="5862.12"/>
   <rect fill="none" stroke="black" stroke-width="26.45" stroke-miterlimit="22.9256" x="2361.36" y="6075.85" width="4426.93" height="443.62"/>
   <polygon fill="none" stroke="black" stroke-width="26.45" stroke-miterlimit="22.9256" points="2361.36,6519.47 6788.29,6519.47 6788.29,10353.62 2361.36,10195.19 "/>
   <rect id="206_306" class="roomSVG" fill="#00336A" stroke="black" stroke-width="26.45" stroke-miterlimit="22.9256" x="275.93" y="3160.64" width="1609.8" height="633.73"/>
   <rect id="206_305" class="roomSVG" fill="#00336A" stroke="black" stroke-width="26.45" stroke-miterlimit="22.9256" x="275.93" y="3794.37" width="1609.8" height="570.37"/>
   <rect id="206_304" class="roomSVG" fill="#00336A" stroke="black" stroke-width="26.45" stroke-miterlimit="22.9256" x="275.93" y="4364.74" width="1609.8" height="3232.09"/>
   <rect id="206_303" class="roomSVG" fill="#00336A" stroke="black" stroke-width="26.45" stroke-miterlimit="22.9256" x="275.93" y="7596.83" width="1609.8" height="2027.99"/>
   <rect id="206_301" class="roomSVG" fill="#00336A" stroke="black" stroke-width="26.45" stroke-miterlimit="22.9256" x="239.35" y="10036.73" width="1390.28" height="2471.6"/>
   <polygon fill="none" stroke="black" stroke-width="26.45" stroke-miterlimit="22.9256" points="2361.36,10195.19 3673.98,10242.16 8178.55,16817.8 6129.74,17768.41 6019.97,17451.53 5727.28,17102.97 5215.08,16722.73 4593.12,16500.92 3897.98,16469.24 2654.04,12159.78 2324.77,12159.78 "/>
   <ellipse fill="none" stroke="black" stroke-width="26.45" stroke-miterlimit="22.9256" cx="4208.12" cy="18049.94" rx="1829.31" ry="1636.43"/>
   <polygon fill="none" stroke="black" stroke-width="26.45" stroke-miterlimit="22.9256" points="1885.73,245.42 2361.36,245.42 2361.36,1734.71 2324.77,12508.34 1629.63,12508.34 1629.63,10036.74 274.36,10036.74 275.94,9624.82 1885.73,9624.82 1885.73,3160.64 275.94,3160.64 275.94,1734.71 1885.73,1734.71 "/>
   <text x="722.43" y="1051.02"  fill="white" font-weight="bold" font-size="317.5px" font-family="Arial">311</text>
   <text x="704.17" y="3563.06"  fill="white" font-weight="bold" font-size="317.5px" font-family="Arial">306</text>
   <text x="722.59" y="4150.32"  fill="white" font-weight="bold" font-size="317.5px" font-family="Arial">305</text>
   <text x="682.82" y="6058.61"  fill="white" font-weight="bold" font-size="317.5px" font-family="Arial">304</text>
   <text x="691.88" y="8680.51"  fill="white" font-weight="bold" font-size="317.5px" font-family="Arial">303</text>
   <text x="589.18" y="11341.92"  fill="white" font-weight="bold" font-size="317.5px" font-family="Arial">301</text>
  </g>
 </g>
</svg>
