<?xml version="1.0" encoding="UTF-8"?>
<!DOCTYPE svg PUBLIC "-//W3C//DTD SVG 1.1//EN" "http://www.w3.org/Graphics/SVG/1.1/DTD/svg11.dtd">
<!-- Creator: CorelDRAW Standard 2021 (64-Bit) -->
<svg xmlns="http://www.w3.org/2000/svg" xml:space="preserve" width="100%" height="100%" version="1.1" shape-rendering="geometricPrecision" text-rendering="geometricPrecision" image-rendering="optimizeQuality" fill-rule="evenodd" clip-rule="evenodd"
viewBox="0 0 27093.32 10583.32"
 xmlns:xlink="http://www.w3.org/1999/xlink"
 xmlns:xodm="http://www.corel.com/coreldraw/odm/2003">
 <g id="Ebene_x0020_1">
  <metadata id="CorelCorpID_0Corel-Layer"/>
  <rect fill="none" stroke="black" stroke-width="26.45" stroke-miterlimit="22.9256" x="244.71" y="209.71" width="2142.02" height="4401.83"/>
  <rect fill="none" stroke="black" stroke-width="26.45" stroke-miterlimit="22.9256" x="2386.73" y="209.71" width="1878.37" height="3247.6"/>
  <polyline fill="none" stroke="black" stroke-width="26.45" stroke-miterlimit="22.9256" points="11547.93,4611.54 2386.73,4611.54 2386.73,3457.31 20972.77,3457.31 20972.77,4611.54 13624.03,4611.54 "/>
  <rect fill="none" stroke="black" stroke-width="26.45" stroke-miterlimit="22.9256" x="4265.09" y="209.71" width="1724.31" height="3247.6"/>
  <rect fill="none" stroke="black" stroke-width="26.45" stroke-miterlimit="22.9256" x="5989.41" y="209.71" width="1865.33" height="3247.6"/>
  <rect fill="none" stroke="black" stroke-width="26.45" stroke-miterlimit="22.9256" x="7854.74" y="209.71" width="1771.13" height="3247.6"/>
  <rect fill="none" stroke="black" stroke-width="26.45" stroke-miterlimit="22.9256" x="9625.87" y="209.71" width="1925.14" height="3247.6"/>
  <rect fill="none" stroke="black" stroke-width="26.45" stroke-miterlimit="22.9256" x="11551.02" y="209.71" width="4030.4" height="3247.6"/>
  <rect fill="none" stroke="black" stroke-width="26.45" stroke-miterlimit="22.9256" x="13689.95" y="2206.89" width="1891.47" height="1250.42"/>
  <rect id="210_101" class="roomSVG" fill="#00336A" stroke="black" stroke-width="26.45" stroke-miterlimit="22.9256" x="15581.41" y="209.71" width="5391.35" height="3247.6"/>
  <rect id="210_102" class="roomSVG" fill="#00336A" stroke="black" stroke-width="26.45" stroke-miterlimit="22.9256" x="20972.77" y="209.7" width="5701.04" height="7704.2"/>
  <rect fill="none" stroke="black" stroke-width="26.45" stroke-miterlimit="22.9256" x="244.71" y="4611.54" width="4020.39" height="3302.37"/>
  <rect fill="none" stroke="black" stroke-width="26.45" stroke-miterlimit="22.9256" x="4265.09" y="4611.54" width="1878.38" height="3302.37"/>
  <rect fill="none" stroke="black" stroke-width="26.45" stroke-miterlimit="22.9256" x="6143.48" y="4611.54" width="1779.51" height="3302.37"/>
  <rect fill="none" stroke="black" stroke-width="26.45" stroke-miterlimit="22.9256" x="7923" y="4611.54" width="1878.37" height="3302.37"/>
  <rect fill="none" stroke="black" stroke-width="26.45" stroke-miterlimit="22.9256" x="9801.36" y="4611.54" width="1746.56" height="3302.37"/>
  <polyline fill="none" stroke="black" stroke-width="26.45" stroke-miterlimit="22.9256" points="13624.03,4611.54 13624.03,7913.91 11547.93,7913.91 11547.93,4611.54 "/>
  <rect fill="none" stroke="black" stroke-width="26.45" stroke-miterlimit="22.9256" x="13630.21" y="4611.54" width="2010.19" height="3302.37"/>
  <rect id="210_103" class="roomSVG" fill="#00336A" stroke="black" stroke-width="26.45" stroke-miterlimit="22.9256" x="15634.22" y="4611.54" width="5338.54" height="3302.37"/>
  <rect fill="none" stroke="black" stroke-width="26.45" stroke-miterlimit="22.9256" x="244.7" y="7913.91" width="26398.64" height="2289.51"/>
  <g transform="matrix(1.02782 0 0 1 -11335 -3537.06)">
   <text x="13546.66" y="5291.66"  fill="black" font-weight="bold" font-size="384.74px" font-family="Arial">114</text>
  </g>
  <g transform="matrix(1.02782 0 0 1 -11335 -3537.06)">
   <text x="13546.66" y="5721.48"  fill="black" font-weight="bold" font-size="384.74px" font-family="Arial">Henrich</text>
  </g>
  <g transform="matrix(1.02782 0 0 1 -9533.67 -3537.06)">
   <text x="13546.66" y="5291.66"  fill="black" font-weight="bold" font-size="384.74px" font-family="Arial">112</text>
  </g>
  <g transform="matrix(1.02782 0 0 1 -9533.67 -3537.06)">
   <text x="13546.66" y="5721.48"  fill="black" font-weight="bold" font-size="384.74px" font-family="Arial">Gerlach</text>
  </g>
  <g transform="matrix(1.02782 0 0 1 -7409.15 -3537.06)">
   <text x="13546.66" y="5291.66"  fill="black" font-weight="bold" font-size="384.74px" font-family="Arial">110</text>
  </g>
  <g transform="matrix(1.02782 0 0 1 -7409.15 -3537.06)">
   <text x="13546.66" y="5721.48"  fill="black" font-weight="bold" font-size="384.74px" font-family="Arial">Fein</text>
  </g>
  <g transform="matrix(1.02782 0 0 1 -12272.3 677.243)">
   <text x="13546.66" y="5291.66"  fill="black" font-weight="bold" font-size="384.74px" font-family="Arial">115</text>
  </g>
  <g transform="matrix(1.02782 0 0 1 -12272.3 677.243)">
   <text x="13546.66" y="5721.48"  fill="black" font-weight="bold" font-size="384.74px" font-family="Arial">Fawaz</text>
  </g>
  <g transform="matrix(1.02782 0 0 1 -12272.3 677.243)">
   <text x="13546.66" y="6151.3"  fill="black" font-weight="bold" font-size="384.74px" font-family="Arial">Kliem</text>
  </g>
  <g transform="matrix(1.02782 0 0 1 -9639.03 900.127)">
   <text x="13546.66" y="5291.66"  fill="black" font-weight="bold" font-size="345.86px" font-family="Arial">113</text>
  </g>
  <g transform="matrix(1.02782 0 0 1 -9639.03 900.127)">
   <text x="13546.66" y="5678.04"  fill="black" font-weight="bold" font-size="345.86px" font-family="Arial">Knoblauch</text>
  </g>
  <g transform="matrix(1.02782 0 0 1 -7542.74 900.127)">
   <text x="13546.66" y="5291.66"  fill="black" font-weight="bold" font-size="345.86px" font-family="Arial">111</text>
  </g>
  <g transform="matrix(1.02782 0 0 1 -7542.74 900.127)">
   <text x="13546.66" y="5678.04"  fill="black" font-weight="bold" font-size="345.86px" font-family="Arial">Matecki</text>
  </g>
  <g transform="matrix(1.02782 0 0 1 -5823.55 900.127)">
   <text x="13546.66" y="5291.66"  fill="black" font-weight="bold" font-size="345.86px" font-family="Arial">109</text>
  </g>
  <g transform="matrix(1.02782 0 0 1 -5823.55 900.127)">
   <text x="13546.66" y="5678.04"  fill="black" font-weight="bold" font-size="345.86px" font-family="Arial">Rembold</text>
  </g>
  <g transform="matrix(1.02782 0 0 1 -5503.12 -3320.22)">
   <text x="13546.66" y="5291.66"  fill="black" font-weight="bold" font-size="384.74px" font-family="Arial">WC</text>
  </g>
  <g transform="matrix(1.02782 0 0 1 -3654.98 -3320.22)">
   <text x="13546.66" y="5291.66"  fill="black" font-weight="bold" font-size="384.74px" font-family="Arial">WC</text>
  </g>
  <g transform="matrix(1.02782 0 0 1 -1734.18 -3318.32)">
   <text x="13546.66" y="5291.66"  fill="black" font-weight="bold" font-size="341.99px" font-family="Arial">Treppenhaus</text>
  </g>
  <g transform="matrix(1.02782 0 0 1 -201.281 877.186)">
   <text x="13546.66" y="5291.66"  fill="black" font-weight="bold" font-size="316.01px" font-family="Arial">104</text>
  </g>
  <g transform="matrix(1.02782 0 0 1 -201.281 877.186)">
   <text x="13546.66" y="5644.69"  fill="black" font-weight="bold" font-size="316.01px" font-family="Arial">Kopierraum</text>
  </g>
  <g transform="matrix(1.02782 0 0 1 2727.95 867.238)">
   <text x="13546.66" y="5291.66"  fill="black" font-weight="bold" font-size="341.99px" font-family="Arial">103 </text>
  </g>
  <g transform="matrix(1.02782 0 0 1 2727.95 867.238)">
   <text x="13546.66" y="5673.71"  fill="black" font-weight="bold" font-size="341.99px" font-family="Arial">Besprechungsraum</text>
  </g>
  <g transform="matrix(1.02782 0 0 1 2054.22 -3561.98)">
   <text x="13546.66" y="5291.66"  fill="black" font-weight="bold" font-size="341.99px" font-family="Arial">101 </text>
  </g>
  <g transform="matrix(1.02782 0 0 1 2054.22 -3561.98)">
   <text x="13546.66" y="5673.71"  fill="black" font-weight="bold" font-size="341.99px" font-family="Arial">Studentischer Übungsraum</text>
  </g>
  <g transform="matrix(1.02782 0 0 1 7979.98 -1333.68)">
   <text x="13546.66" y="5291.66"  fill="black" font-weight="bold" font-size="341.99px" font-family="Arial">102 </text>
  </g>
  <g transform="matrix(1.02782 0 0 1 7979.98 -1333.68)">
   <text x="13546.66" y="5673.71"  fill="black" font-weight="bold" font-size="341.99px" font-family="Arial">IT Security / Netzwerke</text>
  </g>
 </g>
</svg>
