<?xml version="1.0" encoding="UTF-8"?>
<!DOCTYPE svg PUBLIC "-//W3C//DTD SVG 1.1//EN" "http://www.w3.org/Graphics/SVG/1.1/DTD/svg11.dtd">
<!-- Creator: CorelDRAW Standard 2021 (64-Bit) -->
<svg xmlns="http://www.w3.org/2000/svg" xml:space="preserve" width="100%" height="100%" version="1.1" shape-rendering="geometricPrecision" text-rendering="geometricPrecision" image-rendering="optimizeQuality" fill-rule="evenodd" clip-rule="evenodd"
viewBox="0 0 25929.16 8466.66"
 xmlns:xlink="http://www.w3.org/1999/xlink"
 xmlns:xodm="http://www.corel.com/coreldraw/odm/2003">
 <g id="Ebene_x0020_1">
  <metadata id="CorelCorpID_0Corel-Layer"/>
  <rect fill="none" stroke="black" stroke-width="26.45" stroke-miterlimit="22.9256" x="152.06" y="318.19" width="2024.64" height="4417.19"/>
  <rect fill="none" stroke="black" stroke-width="26.45" stroke-miterlimit="22.9256" x="2176.69" y="318.2" width="1825.49" height="3295.9"/>
  <rect fill="none" stroke="black" stroke-width="26.45" stroke-miterlimit="22.9256" x="4002.19" y="318.2" width="1626.34" height="3295.9"/>
  <rect fill="none" stroke="black" stroke-width="26.45" stroke-miterlimit="22.9256" x="5628.53" y="318.2" width="1858.69" height="3295.9"/>
  <polyline fill="none" stroke="black" stroke-width="26.45" stroke-miterlimit="22.9256" points="9213.13,3614.1 7487.22,3614.1 7487.22,318.2 9213.13,318.2 "/>
  <polyline fill="none" stroke="black" stroke-width="26.45" stroke-miterlimit="22.9256" points="9213.13,318.2 11038.63,318.2 11038.63,3614.1 9213.13,3614.1 "/>
  <rect fill="none" stroke="black" stroke-width="26.45" stroke-miterlimit="22.9256" x="11038.63" y="318.2" width="3949.7" height="3295.9"/>
  <rect fill="none" stroke="black" stroke-width="26.45" stroke-miterlimit="22.9256" x="13129.65" y="2356.9" width="1858.67" height="1257.2"/>
  <rect fill="none" stroke="black" stroke-width="26.45" stroke-miterlimit="22.9256" x="14988.32" y="318.2" width="3385.46" height="3295.9"/>
  <rect fill="none" stroke="black" stroke-width="26.45" stroke-miterlimit="22.9256" x="18373.78" y="318.2" width="3518.23" height="3295.9"/>
  <rect fill="none" stroke="black" stroke-width="26.45" stroke-miterlimit="22.9256" x="21892.02" y="318.2" width="3850.12" height="3295.9"/>
  <polyline fill="none" stroke="black" stroke-width="26.45" stroke-miterlimit="22.9256" points="10976.46,4735.39 2176.7,4735.39 2176.7,3614.1 25742.14,3614.1 25742.14,4735.39 12999.59,4735.39 "/>
  <polyline fill="none" stroke="black" stroke-width="26.45" stroke-miterlimit="22.9256" points="13030.08,4735.39 13030.08,8133.22 11001.25,8133.22 11001.25,4735.39 "/>
  <rect fill="none" stroke="black" stroke-width="26.45" stroke-miterlimit="22.9256" x="152.05" y="4735.39" width="10849.19" height="3397.83"/>
  <rect fill="none" stroke="black" stroke-width="26.45" stroke-miterlimit="22.9256" x="13030.07" y="4735.39" width="1925.07" height="3397.83"/>
  <rect fill="none" stroke="black" stroke-width="26.45" stroke-miterlimit="22.9256" x="14955.14" y="4735.39" width="3385.46" height="3397.83"/>
  <rect fill="none" stroke="black" stroke-width="26.45" stroke-miterlimit="22.9256" x="18340.61" y="4735.39" width="3551.41" height="3397.83"/>
  <rect fill="none" stroke="black" stroke-width="26.45" stroke-miterlimit="22.9256" x="21892.02" y="4735.39" width="3850.12" height="3397.83"/>
  <g transform="matrix(0.976821 0 0 1 -10162.5 -2390.97)">
   <text x="12964.58" y="4233.33"  fill="black" font-weight="bold" font-size="407.74px" font-family="Arial">213</text>
  </g>
  <g transform="matrix(0.976821 0 0 1 -10162.5 -2390.97)">
   <text x="12964.58" y="4688.84"  fill="black" font-weight="bold" font-size="407.74px" font-family="Arial">Jungk</text>
  </g>
  <g transform="matrix(0.976821 0 0 1 -8175.97 -2120.39)">
   <text x="12964.58" y="4233.33"  fill="black" font-weight="bold" font-size="407.74px" font-family="Arial">212</text>
  </g>
  <g transform="matrix(0.974655 0 0 1 -6839.86 -2308.19)">
   <text x="12964.58" y="4233.33"  fill="black" font-weight="bold" font-size="407.74px" font-family="Arial">211</text>
  </g>
  <g transform="matrix(0.974655 0 0 1 -6839.86 -2308.19)">
   <text x="12964.58" y="4554.43"  fill="black" font-weight="bold" font-size="259.28px" font-family="Arial">Morgenstern</text>
  </g>
  <rect fill="none" stroke="black" stroke-width="26.45" stroke-miterlimit="22.9256" x="8569" y="2294.92" width="1602.97" height="1327.73"/>
  <g transform="matrix(0.976821 0 0 1 -747.663 -2173.14)">
   <text x="12964.58" y="4233.33"  fill="black" font-weight="bold" font-size="362.43px" font-family="Arial">Treppenhaus</text>
  </g>
  <g transform="matrix(0.976821 0 0 1 3271.47 -2543.96)">
   <text x="12964.58" y="4233.33"  fill="black" font-weight="bold" font-size="362.43px" font-family="Arial">201</text>
  </g>
  <g transform="matrix(0.976821 0 0 1 3271.47 -2543.96)">
   <text x="12964.58" y="4638.22"  fill="black" font-weight="bold" font-size="362.43px" font-family="Arial">Ammann</text>
  </g>
  <g transform="matrix(0.976821 0 0 1 3271.47 -2543.96)">
   <text x="12964.58" y="5043.11"  fill="black" font-weight="bold" font-size="362.43px" font-family="Arial">Varchim</text>
  </g>
  <g transform="matrix(0.976821 0 0 1 6723.32 -2543.96)">
   <text x="12964.58" y="4233.33"  fill="black" font-weight="bold" font-size="362.43px" font-family="Arial">202</text>
  </g>
  <g transform="matrix(0.976821 0 0 1 6723.32 -2543.96)">
   <text x="12964.58" y="4638.22"  fill="black" font-weight="bold" font-size="362.43px" font-family="Arial">Malik</text>
  </g>
  <g transform="matrix(0.976821 0 0 1 6723.32 -2543.96)">
   <text x="12964.58" y="5043.11"  fill="black" font-weight="bold" font-size="362.43px" font-family="Arial">Kriesell</text>
  </g>
  <g transform="matrix(0.976821 0 0 1 9704.15 -2579.66)">
   <text x="12964.58" y="4233.33"  fill="black" font-weight="bold" font-size="362.43px" font-family="Arial">203</text>
  </g>
  <g transform="matrix(0.976821 0 0 1 9704.15 -2579.66)">
   <text x="12964.58" y="4638.22"  fill="black" font-weight="bold" font-size="362.43px" font-family="Arial">Welte</text>
  </g>
  <g transform="matrix(0.976821 0 0 1 9704.15 -2579.66)">
   <text x="12964.58" y="5043.11"  fill="black" font-weight="bold" font-size="362.43px" font-family="Arial">Schlichtenberger</text>
  </g>
  <g transform="matrix(0.976821 0 0 1 960.114 2129.02)">
   <text x="12964.58" y="4233.33"  fill="black" font-weight="bold" font-size="362.43px" font-family="Arial">207 </text>
  </g>
  <g transform="matrix(0.976821 0 0 1 960.114 2129.02)">
   <text x="12964.58" y="4638.22"  fill="black" font-weight="bold" font-size="362.43px" font-family="Arial">EDV</text>
  </g>
  <g transform="matrix(0.987955 0 0 1 3140.83 2126.65)">
   <text x="12964.58" y="4233.33"  fill="black" font-weight="bold" font-size="362.43px" font-family="Arial">206</text>
  </g>
  <g transform="matrix(0.987955 0 0 1 3140.83 2126.65)">
   <text x="12964.58" y="4638.22"  fill="black" font-weight="bold" font-size="362.43px" font-family="Arial">Friemelt</text>
  </g>
  <g transform="matrix(0.987955 0 0 1 6609.27 2126.65)">
   <text x="12964.58" y="4233.33"  fill="black" font-weight="bold" font-size="362.43px" font-family="Arial">205</text>
  </g>
  <g transform="matrix(0.987955 0 0 1 6609.27 2126.65)">
   <text x="12964.58" y="4638.22"  fill="black" font-weight="bold" font-size="362.43px" font-family="Arial">Bauer</text>
  </g>
  <g transform="matrix(0.987955 0 0 1 10504.4 1924.21)">
   <text x="12964.58" y="4233.33"  fill="black" font-weight="bold" font-size="362.43px" font-family="Arial">204</text>
  </g>
  <g transform="matrix(0.987955 0 0 1 10504.4 1924.21)">
   <text x="12964.58" y="4638.22"  fill="black" font-weight="bold" font-size="362.43px" font-family="Arial">Gülec</text>
  </g>
  <g transform="matrix(0.987955 0 0 1 10504.4 1924.21)">
   <text x="12964.58" y="5043.11"  fill="black" font-weight="bold" font-size="362.43px" font-family="Arial">Stiller</text>
  </g>
 </g>
</svg>
