<?xml version="1.0" encoding="UTF-8"?>
<!DOCTYPE svg PUBLIC "-//W3C//DTD SVG 1.1//EN" "http://www.w3.org/Graphics/SVG/1.1/DTD/svg11.dtd">
<!-- Creator: CorelDRAW Standard 2021 (64-Bit) -->
<svg xmlns="http://www.w3.org/2000/svg" xml:space="preserve" width="259.292mm" height="145.521mm" version="1.1"
     shape-rendering="geometricPrecision" text-rendering="geometricPrecision" image-rendering="optimizeQuality"
     fill-rule="evenodd" clip-rule="evenodd"
     viewBox="0 0 25929.16 14552.08"
     xmlns:xlink="http://www.w3.org/1999/xlink"
>
 <g id="Ebene_x0020_1">
  <metadata id="CorelCorpID_0Corel-Layer"/>
  <g id="_2809354448624">
   <polygon id="210" class="gebSVG" fill="#00336A" stroke="black" stroke-width="26.45" stroke-miterlimit="22.9256" points="2049.6,968.84 5511.89,968.84 5511.89,2676.8 2049.6,2676.8 "/>
   <polygon id="205" class="gebSVG" fill="#00336A" stroke="black" stroke-width="26.45" stroke-miterlimit="22.9256" points="9044.67,3653.63 11212.43,3653.63 11215.91,1892.78 13029.13,1892.78 13032.81,3656.71 14204.95,3653.63 14204.95,5887.74 9044.67,5887.74 "/>
   <polygon fill="black" stroke="black" stroke-width="26.45" stroke-miterlimit="22.9256" points="103.77,262.13 12299.11,262.13 18202.91,7843.63 20533.43,7854.98 20140.67,7288.01 25629.99,2812.78 25624.02,3060.67 20421.23,7308.28 20795.21,7832.05 25626.48,7854.96 25626.48,8168 18437.21,8168 23029.52,14197.04 22658.11,14195.02 18860.72,9238 103.95,9223.19 103.95,8909.86 18615.82,8909.86 16682.59,6458.37 104.94,6459.44 104.94,6144.76 8172.44,6138.45 8172.44,580.23 8357.54,580.23 8361.89,6138.47 16500.62,6138.47 12299.11,580.23 103.77,580.23 "/>
   <polygon fill="none" stroke="black" stroke-width="26.45" stroke-miterlimit="22.9256" points="14283.18,1398.37 15651.58,282.81 16625.82,1583.56 15272.12,2687.35 "/>
   <polygon fill="none" stroke="black" stroke-width="26.45" stroke-miterlimit="22.9256" points="15321.7,2758.23 16947.96,1432.39 18752.26,3842.21 17125.73,5167.79 "/>
   <polygon id="206" class="gebSVG" fill="#00336A" stroke="black" stroke-width="26.45" stroke-miterlimit="22.9256" points="17216.66,5227.2 18842.64,3901.44 20647.14,6310.98 19021.27,7636.85 "/>
   <polygon fill="none" stroke="black" stroke-width="26.45" stroke-miterlimit="22.9256" points="20748.47,3595.58 22361.43,2280.37 23546.64,3863.37 21947.64,5158.42 "/>
   <polygon id="201" class="gebSVG" fill="#00336A" stroke="black" stroke-width="26.45" stroke-miterlimit="22.9256" points="15301.89,11237.09 17411.03,9517.69 18960.13,11586.8 16851.56,13306.66 "/>
   <path fill="white" fill-rule="nonzero" d="M3607.97 1985.9l0 62.08 -335.71 0c-0.47,-15.64 2.01,-30.67 7.32,-45.2 8.61,-23.78 22.42,-47.3 41.43,-70.34 19,-23.03 46.15,-49.64 81.45,-79.81 54.89,-47.18 92.19,-84.5 111.66,-112.09 19.6,-27.59 29.39,-53.7 29.39,-78.34 0,-25.74 -8.84,-47.42 -26.55,-65.16 -17.71,-17.61 -40.85,-26.48 -69.29,-26.48 -30.1,0 -54.18,9.36 -72.24,28.08 -18.06,18.6 -27.15,44.47 -27.39,77.6l-63.74 -6.65c4.36,-49.76 20.89,-87.7 49.46,-113.81 28.69,-26.11 67.05,-39.17 115.33,-39.17 48.62,0 87.23,14.04 115.55,42.25 28.46,28.21 42.62,63.19 42.62,104.82 0,21.19 -4.13,42 -12.52,62.45 -8.26,20.57 -22.07,42.12 -41.31,64.79 -19.36,22.54 -51.35,53.7 -95.97,93.12 -37.41,32.76 -61.49,54.93 -72.12,66.63 -10.62,11.7 -19.36,23.41 -26.33,35.23l248.96 0z"/>
   <path id="_1" fill="white" fill-rule="nonzero" d="M3909.09 2047.98l-62.32 0 0 -414.11c-15,15.03 -34.71,29.93 -59.03,44.84 -24.31,14.9 -46.27,26.11 -65.62,33.5l0 -62.82c34.81,-17 65.27,-37.69 91.35,-62.08 26.09,-24.26 44.62,-47.79 55.48,-70.7l40.14 0 0 531.37z"/>
   <path id="_2" fill="white" fill-rule="nonzero" d="M4069.27 1786.85c0,-62.45 6.14,-112.95 18.41,-151.13 12.4,-38.31 30.7,-67.75 55.01,-88.32 24.2,-20.57 54.78,-30.79 91.61,-30.79 27.15,0 50.99,5.67 71.64,17.12 20.54,11.46 37.54,27.96 50.76,49.52 13.22,21.43 23.61,47.67 31.16,78.58 7.68,30.92 11.45,72.67 11.45,125.02 0,62.08 -6.13,112.34 -18.29,150.52 -12.16,38.31 -30.46,67.75 -54.77,88.44 -24.2,20.69 -54.89,31.04 -91.95,31.04 -48.75,0 -87.13,-18.11 -114.97,-54.44 -33.41,-44.35 -50.06,-116.16 -50.06,-215.56zm63.74 0.25c0,87.08 9.68,144.97 29.16,173.55 19.48,28.7 43.56,42.99 72.13,42.99 28.55,0 52.64,-14.41 72.11,-43.11 19.48,-28.83 29.16,-86.59 29.16,-173.43 0,-87.08 -9.68,-144.98 -29.16,-173.55 -19.36,-28.7 -43.67,-42.99 -72.82,-42.99 -28.57,0 -51.47,12.69 -68.59,37.94 -21.36,32.15 -31.99,91.76 -31.99,178.6z"/>
   <path fill="white" fill-rule="nonzero" d="M11559.61 4707.8l0 62.08 -335.72 0c-0.46,-15.64 2.02,-30.67 7.33,-45.2 8.61,-23.78 22.42,-47.3 41.43,-70.34 19,-23.03 46.15,-49.64 81.44,-79.81 54.9,-47.18 92.2,-84.5 111.67,-112.09 19.6,-27.59 29.39,-53.7 29.39,-78.34 0,-25.74 -8.85,-47.42 -26.55,-65.16 -17.71,-17.61 -40.85,-26.48 -69.29,-26.48 -30.1,0 -54.19,9.36 -72.24,28.08 -18.07,18.6 -27.15,44.47 -27.39,77.6l-63.74 -6.65c4.36,-49.76 20.89,-87.7 49.46,-113.81 28.68,-26.11 67.05,-39.17 115.33,-39.17 48.62,0 87.22,14.04 115.55,42.25 28.45,28.21 42.62,63.19 42.62,104.82 0,21.19 -4.13,42 -12.52,62.45 -8.26,20.57 -22.07,42.12 -41.31,64.79 -19.36,22.54 -51.35,53.7 -95.97,93.12 -37.41,32.76 -61.49,54.93 -72.12,66.63 -10.62,11.7 -19.36,23.41 -26.33,35.23l248.96 0z"/>
   <path id="_1_0" fill="white" fill-rule="nonzero" d="M11627.01 4508.75c0,-62.45 6.13,-112.95 18.41,-151.13 12.4,-38.31 30.69,-67.75 55,-88.32 24.2,-20.57 54.78,-30.79 91.61,-30.79 27.15,0 50.99,5.67 71.65,17.12 20.53,11.46 37.53,27.96 50.76,49.52 13.21,21.43 23.6,47.67 31.15,78.58 7.68,30.92 11.46,72.67 11.46,125.02 0,62.08 -6.14,112.34 -18.3,150.52 -12.16,38.31 -30.45,67.75 -54.77,88.44 -24.19,20.69 -54.89,31.04 -91.95,31.04 -48.75,0 -87.12,-18.11 -114.97,-54.44 -33.41,-44.35 -50.05,-116.16 -50.05,-215.56zm63.74 0.25c0,87.08 9.67,144.97 29.16,173.55 19.47,28.7 43.55,42.99 72.12,42.99 28.56,0 52.64,-14.41 72.12,-43.11 19.48,-28.83 29.16,-86.59 29.16,-173.43 0,-87.08 -9.68,-144.98 -29.16,-173.55 -19.36,-28.7 -43.68,-42.99 -72.83,-42.99 -28.57,0 -51.47,12.69 -68.59,37.94 -21.36,32.15 -31.98,91.76 -31.98,178.6z"/>
   <path id="_2_1" fill="white" fill-rule="nonzero" d="M12020.91 4630.94l65.16 -5.17c4.84,33.13 16.05,58.01 33.52,74.76 17.47,16.63 38.84,25.01 63.98,25.01 30.34,0 55.71,-11.83 76.38,-35.35 20.53,-23.65 30.8,-54.94 30.8,-93.86 0,-37.08 -9.8,-66.27 -29.51,-87.7 -19.71,-21.43 -45.8,-32.15 -78.26,-32.15 -20.19,0 -38.24,4.8 -54.3,14.41 -15.93,9.61 -28.45,22.05 -37.66,37.32l-58.78 -8.86 48.87 -271.97 251.43 0 0 62.08 -201.74 0 -27.02 142.76c30.33,-22.3 62.2,-33.38 95.48,-33.38 44.16,0 81.45,16.01 111.79,48.03 30.34,32.03 45.56,73.17 45.56,123.42 0,47.92 -13.33,89.3 -40.01,124.16 -32.46,42.87 -76.85,64.3 -133.03,64.3 -46.04,0 -83.57,-13.55 -112.73,-40.53 -29.15,-26.97 -45.8,-62.69 -49.93,-107.28z"/>
   <path fill="black" fill-rule="nonzero" d="M15229.23 1741.88l0 62.08 -335.71 0c-0.47,-15.64 2.01,-30.67 7.32,-45.2 8.61,-23.78 22.42,-47.3 41.43,-70.34 19,-23.03 46.15,-49.64 81.45,-79.81 54.89,-47.18 92.19,-84.5 111.66,-112.09 19.6,-27.59 29.39,-53.7 29.39,-78.34 0,-25.74 -8.84,-47.42 -26.55,-65.16 -17.71,-17.61 -40.85,-26.48 -69.29,-26.48 -30.1,0 -54.18,9.36 -72.24,28.08 -18.06,18.6 -27.15,44.47 -27.39,77.6l-63.74 -6.65c4.36,-49.76 20.9,-87.7 49.46,-113.81 28.69,-26.11 67.05,-39.17 115.33,-39.17 48.62,0 87.23,14.04 115.55,42.25 28.46,28.21 42.62,63.19 42.62,104.82 0,21.19 -4.13,42 -12.51,62.45 -8.27,20.57 -22.07,42.12 -41.32,64.79 -19.36,22.54 -51.35,53.7 -95.97,93.12 -37.41,32.76 -61.49,54.93 -72.12,66.63 -10.62,11.7 -19.36,23.41 -26.32,35.23l248.95 0z"/>
   <path id="_1_2" fill="black" fill-rule="nonzero" d="M15296.63 1542.83c0,-62.45 6.13,-112.95 18.41,-151.13 12.4,-38.31 30.69,-67.75 55.01,-88.32 24.2,-20.57 54.78,-30.79 91.6,-30.79 27.15,0 51,5.67 71.65,17.12 20.54,11.46 37.54,27.96 50.76,49.52 13.22,21.43 23.61,47.67 31.16,78.58 7.67,30.92 11.45,72.67 11.45,125.02 0,62.08 -6.13,112.34 -18.29,150.52 -12.17,38.31 -30.46,67.75 -54.77,88.44 -24.2,20.69 -54.9,31.04 -91.96,31.04 -48.75,0 -87.12,-18.11 -114.97,-54.44 -33.4,-44.35 -50.05,-116.16 -50.05,-215.56zm63.74 0.25c0,87.08 9.68,144.97 29.16,173.55 19.47,28.7 43.56,42.99 72.12,42.99 28.56,0 52.65,-14.41 72.12,-43.11 19.48,-28.83 29.16,-86.59 29.16,-173.43 0,-87.08 -9.68,-144.98 -29.16,-173.55 -19.36,-28.7 -43.67,-42.99 -72.82,-42.99 -28.57,0 -51.48,12.69 -68.59,37.94 -21.36,32.15 -31.99,91.76 -31.99,178.6z"/>
   <path id="_2_3" fill="black" fill-rule="nonzero" d="M15699.74 1681.28l59.5 -5.17c5.07,29.31 14.74,50.5 29.03,63.68 14.28,13.18 32.58,19.83 55.01,19.83 19.12,0 35.88,-4.56 50.4,-13.8 14.52,-9.11 26.33,-21.31 35.41,-36.7 9.09,-15.28 16.76,-35.97 23.02,-61.96 6.26,-25.99 9.32,-52.47 9.32,-79.45 0,-2.83 -0.11,-7.26 -0.35,-13.05 -12.39,20.69 -29.39,37.57 -50.87,50.38 -21.48,12.93 -44.86,19.33 -69.88,19.33 -41.91,0 -77.32,-15.89 -106.36,-47.66 -28.92,-31.66 -43.44,-73.54 -43.44,-125.52 0,-53.7 15.12,-96.81 45.45,-129.58 30.21,-32.64 68.11,-49.02 113.79,-49.02 32.81,0 62.91,9.24 90.3,27.84 27.27,18.47 47.93,44.83 62.09,79.2 14.17,34.24 21.25,83.88 21.25,148.79 0,67.62 -6.97,121.45 -21.02,161.48 -14.04,40.16 -35.05,70.58 -62.79,91.52 -27.74,20.94 -60.2,31.41 -97.51,31.41 -39.65,0 -72,-11.46 -97.14,-34.49 -25.03,-23.03 -40.14,-55.43 -45.21,-97.06zm254.26 -233.41c0,-37.2 -9.44,-66.76 -28.33,-88.57 -18.77,-21.8 -41.67,-32.76 -68.58,-32.76 -27.86,0 -51.94,11.7 -72.24,35.23 -20.42,23.52 -30.58,54.07 -30.58,91.52 0,33.62 9.68,60.97 28.92,81.91 19.36,21.06 43.45,31.53 72.13,31.53 28.8,0 52.41,-10.47 70.94,-31.53 18.54,-20.94 27.74,-50.14 27.74,-87.33z"/>
   <path fill="black" fill-rule="nonzero" d="M16831.46 3482.89l0 62.08 -335.71 0c-0.47,-15.64 2.01,-30.67 7.32,-45.2 8.62,-23.78 22.43,-47.3 41.43,-70.34 19,-23.03 46.15,-49.64 81.45,-79.81 54.89,-47.18 92.19,-84.5 111.66,-112.09 19.6,-27.59 29.39,-53.7 29.39,-78.34 0,-25.74 -8.84,-47.42 -26.55,-65.16 -17.71,-17.61 -40.85,-26.48 -69.29,-26.48 -30.1,0 -54.18,9.36 -72.24,28.08 -18.06,18.6 -27.15,44.47 -27.39,77.6l-63.73 -6.65c4.36,-49.76 20.89,-87.7 49.45,-113.81 28.69,-26.11 67.05,-39.17 115.33,-39.17 48.63,0 87.23,14.04 115.56,42.25 28.45,28.21 42.61,63.19 42.61,104.82 0,21.19 -4.13,42 -12.51,62.45 -8.26,20.57 -22.07,42.12 -41.32,64.79 -19.36,22.54 -51.34,53.7 -95.96,93.12 -37.42,32.76 -61.5,54.93 -72.13,66.63 -10.62,11.7 -19.36,23.41 -26.32,35.23l248.95 0z"/>
   <path id="_1_4" fill="" fill-rule="nonzero" d="M16898.86 3283.84c0,-62.45 6.13,-112.95 18.41,-151.13 12.4,-38.31 30.7,-67.75 55.01,-88.32 24.2,-20.57 54.78,-30.79 91.61,-30.79 27.15,0 50.99,5.67 71.64,17.12 20.54,11.46 37.54,27.96 50.76,49.52 13.22,21.43 23.61,47.67 31.16,78.58 7.67,30.92 11.45,72.67 11.45,125.02 0,62.08 -6.13,112.34 -18.29,150.52 -12.17,38.31 -30.46,67.75 -54.77,88.44 -24.2,20.69 -54.9,31.04 -91.95,31.04 -48.75,0 -87.13,-18.11 -114.98,-54.44 -33.4,-44.35 -50.05,-116.16 -50.05,-215.56zm63.74 0.25c0,87.08 9.68,144.97 29.16,173.55 19.48,28.7 43.56,42.99 72.13,42.99 28.55,0 52.64,-14.41 72.11,-43.11 19.48,-28.83 29.16,-86.59 29.16,-173.43 0,-87.08 -9.68,-144.98 -29.16,-173.55 -19.36,-28.7 -43.67,-42.99 -72.82,-42.99 -28.57,0 -51.48,12.69 -68.59,37.94 -21.36,32.15 -31.99,91.76 -31.99,178.6z"/>
   <path id="_2_5" fill="black" fill-rule="nonzero" d="M17296.3 3084.55l0 -62.08 327.92 0 0 50.25c-32.23,35.85 -64.33,83.51 -95.97,143.01 -31.74,59.49 -56.18,120.71 -73.54,183.65 -12.39,44.22 -20.42,92.87 -23.84,145.59l-63.74 0c0.71,-41.63 8.5,-92.01 23.49,-151.01 14.99,-59.12 36.36,-116.03 64.33,-170.84 27.98,-54.81 57.72,-101 89.24,-138.57l-247.89 0z"/>
   <path fill="white" fill-rule="nonzero" d="M18658.95 5969.55l0 62.08 -335.72 0c-0.47,-15.64 2.01,-30.67 7.32,-45.2 8.62,-23.78 22.43,-47.3 41.43,-70.34 19.01,-23.03 46.16,-49.64 81.45,-79.81 54.89,-47.18 92.19,-84.5 111.67,-112.09 19.59,-27.59 29.39,-53.7 29.39,-78.34 0,-25.74 -8.85,-47.42 -26.56,-65.16 -17.71,-17.61 -40.84,-26.48 -69.28,-26.48 -30.11,0 -54.19,9.36 -72.24,28.08 -18.07,18.6 -27.15,44.47 -27.39,77.6l-63.74 -6.65c4.36,-49.76 20.89,-87.7 49.46,-113.81 28.68,-26.11 67.04,-39.17 115.32,-39.17 48.63,0 87.23,14.04 115.56,42.25 28.45,28.21 42.62,63.19 42.62,104.82 0,21.19 -4.13,42 -12.52,62.45 -8.26,20.57 -22.07,42.12 -41.31,64.79 -19.36,22.54 -51.35,53.7 -95.97,93.12 -37.41,32.76 -61.5,54.93 -72.12,66.63 -10.62,11.7 -19.36,23.41 -26.33,35.23l248.96 0z"/>
   <path id="_1_6" fill="white" fill-rule="nonzero" d="M18726.34 5770.5c0,-62.45 6.14,-112.95 18.41,-151.13 12.4,-38.31 30.7,-67.75 55.01,-88.32 24.2,-20.57 54.78,-30.79 91.61,-30.79 27.15,0 50.99,5.67 71.64,17.12 20.54,11.46 37.54,27.96 50.77,49.52 13.21,21.43 23.6,47.67 31.15,78.58 7.68,30.92 11.45,72.67 11.45,125.02 0,62.08 -6.13,112.34 -18.29,150.52 -12.16,38.31 -30.46,67.75 -54.77,88.44 -24.2,20.69 -54.89,31.04 -91.95,31.04 -48.75,0 -87.12,-18.11 -114.97,-54.44 -33.41,-44.35 -50.06,-116.16 -50.06,-215.56zm63.74 0.25c0,87.08 9.68,144.97 29.17,173.55 19.47,28.7 43.55,42.99 72.12,42.99 28.56,0 52.64,-14.41 72.11,-43.11 19.49,-28.83 29.17,-86.59 29.17,-173.43 0,-87.08 -9.68,-144.98 -29.17,-173.55 -19.35,-28.7 -43.67,-42.99 -72.82,-42.99 -28.57,0 -51.47,12.69 -68.59,37.94 -21.36,32.15 -31.99,91.76 -31.99,178.6z"/>
   <path id="_2_7" fill="white" fill-rule="nonzero" d="M19443.91 5631.81l-61.62 5.17c-5.54,-25.49 -13.45,-44.09 -23.72,-55.67 -16.88,-18.6 -37.77,-27.84 -62.56,-27.84 -19.95,0 -37.66,5.79 -52.89,17.37 -19.58,14.9 -34.94,36.58 -46.38,65.16 -11.34,28.7 -17.24,69.47 -17.71,122.31 14.99,-23.77 33.41,-41.51 55.12,-52.97 21.73,-11.57 44.39,-17.36 68.24,-17.36 41.54,0 76.96,16.01 106.23,47.91 29.16,31.9 43.79,73.04 43.79,123.67 0,33.25 -6.84,64.05 -20.53,92.62 -13.81,28.58 -32.59,50.38 -56.67,65.53 -23.96,15.15 -51.22,22.79 -81.68,22.79 -51.81,0 -94.19,-19.96 -127.01,-59.74 -32.7,-39.79 -49.11,-105.44 -49.11,-196.83 0,-102.24 18.18,-176.63 54.42,-223.07 31.64,-40.4 74.25,-60.6 127.96,-60.6 39.9,0 72.71,11.7 98.21,34.98 25.49,23.28 40.83,55.43 45.91,96.57zm-254.96 228.36c0,22.42 4.6,43.85 13.69,64.3 9.09,20.45 21.84,35.97 38.01,46.68 16.28,10.72 33.52,16.14 51.82,16.14 26.55,0 49.22,-11.09 67.99,-33.26 18.77,-22.17 28.22,-52.22 28.22,-90.29 0,-36.58 -9.33,-65.4 -27.86,-86.46 -18.54,-21.07 -42.15,-31.66 -70.83,-31.66 -28.09,0 -52.06,10.59 -71.65,31.66 -19.6,21.06 -29.39,48.65 -29.39,82.89z"/>
   <path fill="black" fill-rule="nonzero" d="M21874.59 3902.2l0 62.08 -335.71 0c-0.47,-15.64 2.01,-30.67 7.32,-45.2 8.62,-23.78 22.43,-47.3 41.43,-70.34 19.01,-23.03 46.16,-49.64 81.45,-79.81 54.89,-47.18 92.19,-84.5 111.67,-112.09 19.59,-27.59 29.39,-53.7 29.39,-78.34 0,-25.74 -8.85,-47.42 -26.56,-65.16 -17.71,-17.61 -40.84,-26.48 -69.29,-26.48 -30.1,0 -54.18,9.36 -72.23,28.08 -18.07,18.6 -27.15,44.47 -27.39,77.6l-63.74 -6.65c4.36,-49.76 20.89,-87.7 49.46,-113.81 28.68,-26.11 67.04,-39.17 115.32,-39.17 48.63,0 87.23,14.04 115.56,42.25 28.45,28.21 42.62,63.19 42.62,104.82 0,21.19 -4.14,42 -12.52,62.45 -8.26,20.57 -22.07,42.12 -41.31,64.79 -19.36,22.54 -51.35,53.7 -95.97,93.12 -37.41,32.76 -61.5,54.93 -72.13,66.63 -10.61,11.7 -19.35,23.41 -26.32,35.23l248.95 0z"/>
   <path id="_1_8" fill="black" fill-rule="nonzero" d="M21941.99 3703.15c0,-62.45 6.14,-112.95 18.41,-151.13 12.4,-38.31 30.7,-67.75 55.01,-88.32 24.2,-20.57 54.78,-30.79 91.61,-30.79 27.15,0 50.99,5.67 71.64,17.12 20.54,11.46 37.54,27.96 50.77,49.52 13.21,21.43 23.6,47.67 31.15,78.58 7.68,30.92 11.45,72.67 11.45,125.02 0,62.08 -6.13,112.34 -18.29,150.52 -12.16,38.31 -30.46,67.75 -54.77,88.44 -24.2,20.69 -54.89,31.04 -91.95,31.04 -48.75,0 -87.12,-18.11 -114.97,-54.44 -33.41,-44.35 -50.06,-116.16 -50.06,-215.56zm63.74 0.25c0,87.08 9.68,144.97 29.16,173.55 19.48,28.7 43.56,42.99 72.13,42.99 28.56,0 52.64,-14.41 72.11,-43.11 19.49,-28.83 29.16,-86.59 29.16,-173.43 0,-87.08 -9.67,-144.98 -29.16,-173.55 -19.36,-28.7 -43.67,-42.99 -72.82,-42.99 -28.57,0 -51.47,12.69 -68.59,37.94 -21.36,32.15 -31.99,91.76 -31.99,178.6z"/>
   <path id="_2_9" fill="black" fill-rule="nonzero" d="M22534.91 3964.28l0 -126.38 -220.26 0 0 -59.86 231.59 -342.91 51 0 0 342.91 68.7 0 0 59.86 -68.7 0 0 126.38 -62.33 0zm0 -186.24l0 -238.09 -158.99 238.09 158.99 0z"/>
   <path fill="white" fill-rule="nonzero" d="M16891.77 11489.42l0 62.08 -335.71 0c-0.47,-15.64 2.01,-30.67 7.32,-45.2 8.61,-23.78 22.42,-47.3 41.43,-70.34 19,-23.03 46.15,-49.64 81.45,-79.81 54.89,-47.18 92.19,-84.5 111.66,-112.09 19.6,-27.59 29.39,-53.7 29.39,-78.34 0,-25.74 -8.84,-47.42 -26.55,-65.16 -17.71,-17.61 -40.85,-26.48 -69.29,-26.48 -30.1,0 -54.18,9.36 -72.24,28.08 -18.06,18.6 -27.15,44.47 -27.39,77.6l-63.74 -6.65c4.36,-49.76 20.9,-87.7 49.46,-113.81 28.69,-26.11 67.05,-39.17 115.33,-39.17 48.62,0 87.23,14.04 115.55,42.25 28.46,28.21 42.62,63.19 42.62,104.82 0,21.19 -4.13,42 -12.51,62.45 -8.27,20.57 -22.07,42.12 -41.32,64.79 -19.36,22.54 -51.35,53.7 -95.97,93.12 -37.41,32.76 -61.49,54.93 -72.12,66.63 -10.62,11.7 -19.36,23.41 -26.32,35.23l248.95 0z"/>
   <path id="_1_10" fill="white" fill-rule="nonzero" d="M16959.17 11290.37c0,-62.45 6.13,-112.95 18.41,-151.13 12.4,-38.31 30.69,-67.75 55.01,-88.32 24.2,-20.57 54.78,-30.79 91.6,-30.79 27.15,0 51,5.67 71.65,17.12 20.54,11.46 37.54,27.96 50.76,49.52 13.22,21.43 23.61,47.67 31.16,78.58 7.67,30.92 11.45,72.67 11.45,125.02 0,62.08 -6.13,112.34 -18.29,150.52 -12.17,38.31 -30.46,67.75 -54.77,88.44 -24.2,20.69 -54.9,31.04 -91.96,31.04 -48.75,0 -87.12,-18.11 -114.97,-54.44 -33.4,-44.35 -50.05,-116.16 -50.05,-215.56zm63.74 0.25c0,87.08 9.68,144.97 29.16,173.55 19.47,28.7 43.56,42.99 72.12,42.99 28.56,0 52.65,-14.41 72.12,-43.11 19.48,-28.83 29.16,-86.59 29.16,-173.43 0,-87.08 -9.68,-144.98 -29.16,-173.55 -19.36,-28.7 -43.67,-42.99 -72.82,-42.99 -28.57,0 -51.48,12.69 -68.59,37.94 -21.36,32.15 -31.99,91.76 -31.99,178.6z"/>
   <path id="_2_11" fill="white" fill-rule="nonzero" d="M17586.79 11551.5l-62.32 0 0 -414.11c-15,15.03 -34.71,29.93 -59.02,44.84 -24.32,14.9 -46.27,26.11 -65.63,33.5l0 -62.82c34.82,-17 65.27,-37.69 91.36,-62.08 26.08,-24.26 44.62,-47.79 55.48,-70.7l40.13 0 0 531.37z"/>
  </g>
 </g>
</svg>
